<?xml version="1.0" encoding="UTF-8"?>
<svg id="Your_Design_Here" data-name="Your Design Here" xmlns="http://www.w3.org/2000/svg" viewBox="0 0 1106.51 313.38">
  <defs>
    <style>
      .cls-1 {
        fill: #fff;
      }
    </style>
  </defs>
  <g>
    <g>
      <path class="cls-1" d="M168.34,152.81c14.77-18.27,22.15-38.45,22.15-60.53,0-27.57-9.05-49.84-27.18-66.81C145.19,8.49,122.5,0,95.25,0,78.64,0,63.12,3.7,48.66,11.06c-14.48,7.4-26.21,17.94-35.18,31.65C4.48,56.41,0,71.72,0,88.62c0,27.87,8.94,50.68,26.83,68.42,17.9,17.74,40.7,26.61,68.42,26.61,19.18,0,34.95-3.74,47.28-11.19l13.7,16.22,41.12-6.4-29-29.46ZM135.9,117.86l-12.1-12.57-42.25,5.25,27.64,27.41c-4.42,1.53-9,2.29-13.71,2.29-13.56,0-25.1-4.91-34.61-14.74-9.52-9.82-14.28-22.04-14.28-36.66,0-12.02,4.84-22.61,14.51-31.75,9.67-9.13,21.14-13.7,34.38-13.7s24.62,4.91,34.14,14.72c9.53,9.83,14.27,21.29,14.27,34.37,0,9.45-2.66,17.9-7.99,25.36"/>
      <path class="cls-1" d="M315.9,5.71v90.69c0,5.48-.12,10.05-.35,13.7-.23,3.65-.91,7.77-2.06,12.33-1.14,4.57-2.74,8.23-4.79,10.97-2.06,2.74-5.07,5.06-9.02,6.96-3.97,1.9-8.68,2.86-14.17,2.86s-10.2-.96-14.16-2.86c-3.96-1.91-6.96-4.23-9.02-6.96-2.06-2.74-3.65-6.4-4.79-10.97-1.14-4.56-1.84-8.69-2.06-12.33-.23-3.65-.35-8.22-.35-13.7V5.71h-44.77v96.85c0,14.01,1.1,25.78,3.3,35.3,2.21,9.52,7.11,18,14.74,25.47,12.95,12.78,31.98,19.18,57.1,19.18s44.16-6.4,57.11-19.18c7.61-7.46,12.52-15.95,14.72-25.47,2.22-9.52,3.32-21.29,3.32-35.3V5.71h-44.77Z"/>
      <path class="cls-1" d="M488.59,5.71h-48.89l-66.24,172.22h47.51l11.87-29.92h61.66l11.19,29.92h47.76L488.59,5.71ZM445.17,113.74l18.5-54.81h.46l18.28,54.81h-37.25Z"/>
      <path class="cls-1" d="M656.45,107.34c11.9-2.11,21.15-7.68,27.77-16.67,6.63-8.97,9.93-19.63,9.93-31.98,0-17.66-5.49-30.91-16.45-39.74-10.96-8.82-25.43-13.25-43.39-13.25h-66.94v172.22h44.78v-66.23h.46l42.26,66.23h55.73l-54.15-70.59ZM616.49,82.91h-4.34v-42.95h4.34c20.71,0,31.06,7.17,31.06,21.48s-10.35,21.47-31.06,21.47"/>
      <polygon class="cls-1" points="867.06 5.71 724.53 5.71 724.53 43.62 792.14 43.62 710.6 177.93 858.15 177.93 858.15 140.01 785.98 140.01 867.06 5.71"/>
      <path class="cls-1" d="M1052.53,42.71c-8.99-13.71-20.72-24.24-35.18-31.65-14.47-7.37-29.99-11.06-46.6-11.06s-32.12,3.7-46.59,11.06c-14.47,7.4-26.19,17.94-35.18,31.65-8.99,13.7-13.48,29.01-13.48,45.91,0,27.87,8.95,50.68,26.84,68.42,17.89,17.74,40.7,26.61,68.41,26.61s50.53-8.87,68.42-26.61c17.89-17.74,26.84-40.55,26.84-68.42,0-16.9-4.49-32.21-13.48-45.91M1005.25,125.51c-9.44,9.83-20.93,14.74-34.5,14.74s-25.04-4.91-34.47-14.74c-9.46-9.82-14.17-22.04-14.17-36.66,0-12.02,4.81-22.61,14.39-31.75,9.6-9.14,21.02-13.7,34.25-13.7s24.68,4.56,34.27,13.7c9.6,9.14,14.39,19.73,14.39,31.75,0,14.62-4.72,26.84-14.16,36.66"/>
    </g>
    <path class="cls-1" d="M1094.5,16.63c2.37-.69,3.56-2.26,3.56-4.71,0-1.63-.56-2.92-1.67-3.87-1.11-.95-2.55-1.43-4.34-1.43h-7.3v16.75h5.08v-5.59l3.85,5.59h6.34l-5.52-6.74ZM1090.39,13.89h-.55v-3.45h.55c1.66,0,2.48.57,2.48,1.7s-.83,1.75-2.48,1.75M1094.5,16.63c2.37-.69,3.56-2.26,3.56-4.71,0-1.63-.56-2.92-1.67-3.87-1.11-.95-2.55-1.43-4.34-1.43h-7.3v16.75h5.08v-5.59l3.85,5.59h6.34l-5.52-6.74ZM1090.39,13.89h-.55v-3.45h.55c1.66,0,2.48.57,2.48,1.7s-.83,1.75-2.48,1.75M1105.35,9.31c-.78-1.82-1.84-3.4-3.19-4.75-1.35-1.35-2.93-2.41-4.75-3.19-1.82-.78-3.75-1.17-5.8-1.17s-3.98.39-5.78,1.17c-1.81.78-3.38,1.84-4.73,3.19-1.35,1.35-2.41,2.93-3.19,4.75-.78,1.81-1.17,3.75-1.17,5.8s.39,3.98,1.17,5.78c.78,1.81,1.84,3.38,3.19,4.73,1.35,1.34,2.92,2.41,4.73,3.19,1.8.78,3.73,1.17,5.78,1.17s3.98-.39,5.8-1.17c1.82-.78,3.4-1.84,4.75-3.19,1.35-1.35,2.41-2.92,3.19-4.73.78-1.8,1.17-3.73,1.17-5.78s-.39-3.99-1.17-5.8M1102.64,19.76c-.63,1.45-1.49,2.72-2.58,3.8-1.09,1.09-2.35,1.95-3.8,2.57-1.45.63-3,.95-4.65.95s-3.21-.32-4.65-.95c-1.45-.63-2.72-1.49-3.8-2.57-1.09-1.09-1.95-2.35-2.57-3.8-.63-1.44-.95-2.99-.95-4.65s.32-3.21.95-4.65c.63-1.44,1.48-2.71,2.57-3.8,1.08-1.09,2.35-1.95,3.8-2.58,1.44-.63,2.99-.94,4.65-.94s3.2.31,4.65.94c1.44.63,2.71,1.49,3.8,2.58,1.09,1.08,1.95,2.35,2.58,3.8.63,1.45.94,3,.94,4.65s-.32,3.21-.94,4.65M1098.06,11.92c0-1.63-.56-2.92-1.67-3.87-1.11-.95-2.55-1.43-4.34-1.43h-7.3v16.75h5.08v-5.59l3.85,5.59h6.34l-5.52-6.74c2.37-.69,3.56-2.26,3.56-4.71M1090.39,13.89h-.55v-3.45h.55c1.66,0,2.48.57,2.48,1.7s-.83,1.75-2.48,1.75M1094.5,16.63c2.37-.69,3.56-2.26,3.56-4.71,0-1.63-.56-2.92-1.67-3.87-1.11-.95-2.55-1.43-4.34-1.43h-7.3v16.75h5.08v-5.59l3.85,5.59h6.34l-5.52-6.74ZM1090.39,13.89h-.55v-3.45h.55c1.66,0,2.48.57,2.48,1.7s-.83,1.75-2.48,1.75M1094.5,16.63c2.37-.69,3.56-2.26,3.56-4.71,0-1.63-.56-2.92-1.67-3.87-1.11-.95-2.55-1.43-4.34-1.43h-7.3v16.75h5.08v-5.59l3.85,5.59h6.34l-5.52-6.74ZM1090.39,13.89h-.55v-3.45h.55c1.66,0,2.48.57,2.48,1.7s-.83,1.75-2.48,1.75"/>
  </g>
  <g>
    <path class="cls-1" d="M149.17,274.68l21.44,27.96h-22.08l-16.74-26.24h-.18v26.24h-17.73v-68.21h26.51c7.12,0,12.85,1.75,17.19,5.25,4.34,3.5,6.51,8.75,6.51,15.74,0,4.89-1.31,9.11-3.94,12.67-2.62,3.56-6.29,5.76-10.99,6.6ZM131.62,247.99v17.01h1.72c8.2,0,12.3-2.83,12.3-8.5s-4.1-8.5-12.3-8.5h-1.72Z"/>
    <path class="cls-1" d="M214.22,249.44h-21.08v11.4h19.99v15.02h-19.99v11.76h21.08v15.02h-38.81v-68.21h38.81v15.02Z"/>
    <path class="cls-1" d="M242.9,260.75h25.6v-26.33h17.73v68.21h-17.73v-27.96h-25.6v27.96h-17.73v-68.21h17.73v26.33Z"/>
    <path class="cls-1" d="M339.61,290.78h-24.43l-4.7,11.85h-18.82l26.24-68.21h19.36l25.69,68.21h-18.91l-4.43-11.85ZM334.82,277.21l-7.24-21.71h-.18l-7.33,21.71h14.75Z"/>
    <path class="cls-1" d="M395.79,302.63h-27.32v-68.21h25.33c13.51,0,20.27,5.91,20.27,17.73,0,6.76-2.5,11.4-7.51,13.93v.18c9.29,1.21,13.93,7,13.93,17.37,0,3.44-.69,6.42-2.08,8.96-1.39,2.53-3.27,4.51-5.65,5.93-2.38,1.42-4.98,2.46-7.78,3.12-2.81.66-5.87,1-9.18,1ZM386.2,247.99v13.21h1.99c2.9,0,5.22-.45,6.97-1.36,1.75-.9,2.62-2.65,2.62-5.25,0-1.51-.29-2.73-.86-3.66-.57-.93-1.43-1.6-2.58-1.99-1.15-.39-2.2-.65-3.17-.77-.97-.12-2.2-.18-3.71-.18h-1.27ZM386.2,274.41v14.66h5.2c.51,0,1.49-.06,2.94-.18,1.45-.12,2.52-.33,3.21-.63.69-.3,1.51-.71,2.44-1.22.93-.51,1.6-1.21,1.99-2.08.39-.87.59-1.91.59-3.12,0-.9-.09-1.72-.27-2.44-.18-.72-.5-1.33-.95-1.81-.45-.48-.86-.92-1.22-1.31-.36-.39-.95-.69-1.76-.9-.81-.21-1.43-.39-1.85-.54-.42-.15-1.16-.26-2.22-.32-1.06-.06-1.75-.09-2.08-.09h-6.02Z"/>
    <path class="cls-1" d="M447.45,234.42v68.21h-17.73v-68.21h17.73Z"/>
    <path class="cls-1" d="M476.76,234.42v53.2h21.26v15.02h-38.99v-68.21h17.73Z"/>
    <path class="cls-1" d="M521.55,234.42v68.21h-17.73v-68.21h17.73Z"/>
    <path class="cls-1" d="M560.27,249.44v53.2h-17.73v-53.2h-14.66v-15.02h47.05v15.02h-14.66Z"/>
    <path class="cls-1" d="M617.72,290.78h-24.43l-4.7,11.85h-18.82l26.24-68.21h19.36l25.69,68.21h-18.91l-4.43-11.85ZM612.92,277.21l-7.24-21.71h-.18l-7.33,21.71h14.75Z"/>
    <path class="cls-1" d="M695.34,236.05v21.26c-1.81-2.41-4.09-4.27-6.83-5.56-2.75-1.3-5.65-1.94-8.73-1.94-5.37,0-9.74,1.81-13.12,5.43-3.38,3.62-5.07,8.11-5.07,13.48s1.7,9.88,5.11,13.34c3.41,3.47,7.85,5.2,13.34,5.2,2.89,0,5.7-.65,8.41-1.95,2.71-1.3,5.01-3.06,6.88-5.29v21.26c-6.88,2.11-12.09,3.17-15.65,3.17-9.71,0-18.25-3.35-25.6-10.04-7.3-6.57-10.95-15.17-10.95-25.78,0-9.77,3.35-18.1,10.04-24.97,3.38-3.44,7.36-6.14,11.94-8.1,4.58-1.96,9.26-2.94,14.02-2.94,5.25,0,10.65,1.15,16.19,3.44Z"/>
    <path class="cls-1" d="M724.02,234.42v68.21h-17.73v-68.21h17.73Z"/>
    <path class="cls-1" d="M751.43,236.55c5.73-2.92,11.88-4.39,18.46-4.39s12.73,1.46,18.46,4.39c5.73,2.93,10.37,7.1,13.93,12.53,3.56,5.43,5.34,11.49,5.34,18.18,0,11.04-3.54,20.07-10.63,27.1-7.09,7.03-16.12,10.54-27.1,10.54s-20.01-3.51-27.1-10.54c-7.09-7.03-10.63-16.06-10.63-27.1,0-6.69,1.78-12.76,5.34-18.18,3.56-5.43,8.2-9.6,13.93-12.53ZM783.46,254.77c-3.8-3.62-8.32-5.43-13.57-5.43s-9.77,1.81-13.57,5.43c-3.8,3.62-5.7,7.81-5.7,12.58,0,5.79,1.87,10.63,5.61,14.52,3.74,3.89,8.29,5.83,13.66,5.83s9.92-1.94,13.66-5.83c3.74-3.89,5.61-8.73,5.61-14.52,0-4.76-1.9-8.96-5.7-12.58Z"/>
    <path class="cls-1" d="M815.84,302.63v-68.21h17.73l32.48,41.71h.18v-41.71h17.73v68.21h-17.73l-32.48-41.8h-.18v41.8h-17.73Z"/>
    <path class="cls-1" d="M934.36,249.44h-21.08v11.4h19.99v15.02h-19.99v11.76h21.08v15.02h-38.81v-68.21h38.81v15.02Z"/>
    <path class="cls-1" d="M989.82,238.22l-7.06,13.75c-3.62-3.02-7.54-4.52-11.76-4.52-1.87,0-3.6.51-5.2,1.54-1.6,1.03-2.4,2.41-2.4,4.16,0,1.21.5,2.29,1.49,3.26,1,.97,1.93,1.63,2.81,1.99.87.36,2.07.78,3.57,1.27l4.52,1.36c5.31,1.57,9.44,3.79,12.39,6.65,2.95,2.86,4.43,6.86,4.43,11.99,0,8.26-2.35,14.38-7.06,18.37-5.07,4.28-11.52,6.42-19.36,6.42-8.57,0-16.56-2.59-23.97-7.78l7.6-14.29c5.37,4.7,10.61,7.06,15.74,7.06,2.29,0,4.3-.59,6.02-1.76,1.72-1.18,2.58-2.88,2.58-5.11,0-3.08-2.87-5.46-8.59-7.15-.18-.06-.91-.27-2.17-.63-3.26-.9-5.82-1.75-7.69-2.53-1.87-.78-3.74-1.88-5.61-3.3-1.87-1.42-3.2-3.21-3.98-5.38-.78-2.17-1.18-4.85-1.18-8.05,0-6.88,2.2-12.41,6.6-16.6,4.4-4.19,10.04-6.29,16.92-6.29,3.44,0,7.1.51,10.99,1.54,3.89,1.03,7.34,2.38,10.36,4.07Z"/>
  </g>
</svg>